<?xml version="1.0" encoding="utf-8"?>
<!-- Generator: Adobe Illustrator 23.0.1, SVG Export Plug-In . SVG Version: 6.00 Build 0)  -->
<svg version="1.1" id="pb_icon" xmlns="http://www.w3.org/2000/svg" xmlns:xlink="http://www.w3.org/1999/xlink" x="0px" y="0px"
	 viewBox="0 0 72.6 65" style="enable-background:new 0 0 72.6 65;" xml:space="preserve">
<style type="text/css">
	.st0{fill:#231F20;}
</style>
<g>
	<path class="st0" d="M48.1,61.3l0-0.1l1.4-15.5c7-5.1,12.6-11.2,15.9-17.4c1.6-3,2.6-5.8,3-8.4c2.4-1,4-3.4,4-6.2
		c0-3.7-3-6.7-6.7-6.7c-0.9,0-1.7,0.2-2.4,0.5C60.8,5.8,57.4,5,53.3,5.1l0.1-1l0-0.1c-0.2-0.7-2.1-4-18.9-4S15.7,3.3,15.5,4l0,0.1
		l0.7,7.5c-0.5,1.4-0.7,2.9-0.7,4.4c0,2.1,0.5,4.2,1.5,6.2c-4,3.8-7.3,7.9-9.5,12c-1.8,3.3-2.8,6.4-3.1,9.2c-2.5,1-4.2,3.4-4.2,6.2
		c0,3.7,3,6.7,6.7,6.7c1.2,0,2.4-0.3,3.4-0.9c2.4,1.3,5.4,2,9,2c0.4,0,0.8,0,1.3,0l0.3,3.7l0,0.2c1.5,3.4,11.6,3.7,13.7,3.6h0V65h0
		C36.5,64.9,46.6,64.7,48.1,61.3z M53.8,7c2.1,0,4,0.3,5.6,0.7c0.8,0.2,1.5,0.5,2.1,0.8c-1.5,1.2-2.4,3.1-2.4,5.1
		c0,3.7,3,6.7,6.7,6.7c0.2,0,0.4,0,0.6,0c-0.4,2.2-1.3,4.5-2.7,7c-3,5.5-7.9,11-14,15.7l1.9-20.4c1.2-2.1,1.7-4.4,1.7-6.7
		c0-1.5-0.3-3-0.7-4.4L53.1,7C53.3,7,53.6,7,53.8,7z M13.5,54.7c-0.6-0.2-1.2-0.4-1.8-0.7c1.1-1.2,1.7-2.7,1.7-4.5
		c0-3.7-3-6.7-6.7-6.7c-0.2,0-0.3,0-0.5,0c0.4-2.4,1.3-5.1,2.8-7.8c2-3.6,4.8-7.3,8.3-10.7l2.8,31.1C17.7,55.5,15.4,55.3,13.5,54.7z
		 M22.1,60.8l-0.3-3.6l-0.2-1.9l-2.9-32.2l-0.1-0.9l-0.1-0.1c-0.2-0.3-0.4-0.7-0.5-1c-0.8-1.6-1.1-3.4-1.1-5.2
		c0-1.4,0.2-2.8,0.7-4.1l0-0.1l-0.7-7.4c0.4-0.4,3.2-2.9,17.5-2.9c14.4,0,17.1,2.5,17.5,2.9l-0.1,0.8l-0.2,1.9l-0.4,4.7l0,0.1
		c0.5,1.3,0.7,2.7,0.7,4.1c0,2.1-0.5,4.2-1.6,6.2l-0.1,0.1l-2,21.9l-0.2,2.5l-1.3,14.1c-1,1.9-8.1,2.7-12.4,2.8
		C30.1,63.5,23.1,62.7,22.1,60.8z"/>
	<path class="st0" d="M45.6,56.9l0.8-9.1c-7.6,5-15.8,8.3-23.1,9.2c1.5,2.5,11.1,2.6,11.1,2.6S44.5,59.6,45.6,56.9z"/>
	<path class="st0" d="M37.4,8.7c-0.9,0-1.9,0-2.9,0.1C28.8,9.1,19,9.4,19,9.4l0.4,3.2c-0.4,1.2-0.6,2.4-0.6,3.7
		c0,1.2,0.2,2.4,0.6,3.6c1.9-1.7,4-3.3,6.2-4.7C29.4,12.6,33.5,10.4,37.4,8.7z"/>
	<path class="st0" d="M46.6,45.4l2-23.5c0.9-1.7,1.5-3.6,1.5-5.6c0-1.3-0.2-2.5-0.6-3.7l0.4-3.2c0,0-1.5-0.5-6.8-0.7
		c-5.4,1.6-11.1,4.4-16.4,8c-2.3,1.6-4.5,3.2-6.5,5c0,0,0,0.1,0.1,0.1l2.9,33.2c7.3-1,15.5-4.3,23.2-9.5
		C46.4,45.6,46.5,45.5,46.6,45.4z"/>
</g>
</svg>
