<?xml version="1.0" encoding="utf-8"?>
<!-- Generator: Adobe Illustrator 23.0.1, SVG Export Plug-In . SVG Version: 6.00 Build 0)  -->
<svg version="1.1" id="Layer_1" xmlns="http://www.w3.org/2000/svg" xmlns:xlink="http://www.w3.org/1999/xlink" x="0px" y="0px"
	 viewBox="0 0 1441.8 256.9" style="enable-background:new 0 0 1441.8 256.9;" xml:space="preserve">
<style type="text/css">
	.st0{fill:#231F20;}
</style>
<g id="Layer_3">
</g>
<g id="Layer_4">
</g>
<g id="Layer_3_1_">
</g>
<g>
	<path class="st0" d="M259,227.6l0.2-0.4l4.9-53.4c24.1-17.7,43.4-38.7,54.9-59.9c5.6-10.2,9.1-20,10.5-29
		c8.2-3.5,13.9-11.7,13.9-21.2c0-12.8-10.3-23.1-23.1-23.1c-3,0-5.8,0.6-8.4,1.6c-9-5.6-20.9-8.4-35.1-8.1l0.3-3.3l-0.2-0.5
		c-0.7-2.3-7.3-13.7-65-13.7s-64.4,11.4-65.1,13.7l-0.2,0.5l2.4,25.8c-1.7,4.9-2.5,10-2.5,15.2c0,7.4,1.7,14.5,5,21.2
		c-13.8,13.1-25.1,27.3-32.8,41.5c-6.1,11.2-9.7,21.9-10.8,31.7c-8.5,3.4-14.6,11.7-14.6,21.5c0,12.8,10.3,23.1,23.1,23.1
		c4.3,0,8.2-1.1,11.7-3.2c8.3,4.5,18.8,6.8,31,6.8c1.4,0,2.9,0,4.4-0.1l1.2,12.8l0.2,0.7c5,11.7,40.1,12.6,47.1,12.5h0v0.3h0
		C218.9,240.2,254,239.3,259,227.6z M278.6,40.6c7.1,0,13.6,0.9,19.3,2.6c2.7,0.8,5.1,1.7,7.4,2.9c-5,4.3-8.2,10.6-8.2,17.6
		c0,12.8,10.3,23.1,23.1,23.1c0.7,0,1.4,0,2.1-0.1c-1.5,7.6-4.6,15.6-9.2,24.1c-10.3,18.9-27.3,37.9-48.3,54.2l6.4-70.2
		c4-7.2,6-15,6-23.1c0-5.1-0.9-10.2-2.5-15.2l1.4-15.8C277,40.6,277.8,40.6,278.6,40.6z M139.8,205c-2.2-0.6-4.2-1.4-6.1-2.2
		c3.6-4.1,5.8-9.5,5.8-15.4c0-12.8-10.3-23.1-23.1-23.1c-0.6,0-1.1,0-1.6,0c1.3-8.4,4.5-17.4,9.7-26.9c6.9-12.6,16.6-25.1,28.6-36.9
		l9.7,107C154.2,207.8,146.5,207,139.8,205z M169.3,226l-1.1-12.3l-0.6-6.6L157.5,96.3l-0.3-3l-0.3-0.4c-0.6-1.1-1.2-2.3-1.7-3.4
		c-2.6-5.7-3.9-11.7-3.9-17.8c0-4.8,0.8-9.5,2.4-14.1l0.2-0.5l-2.3-25.6c1.3-1.5,11-10.1,60.3-10.1c49.7,0,59,8.6,60.3,10.1
		l-0.3,2.8l-0.6,6.7l-1.5,16.2l0.2,0.5c1.6,4.6,2.4,9.3,2.4,14.1c0,7.4-1.9,14.5-5.7,21.2l-0.3,0.4l-6.8,75.5l-0.8,8.7l-4.4,48.6
		c-3.5,6.6-27.9,9.4-42.6,9.5C197.1,235.4,172.8,232.6,169.3,226z"/>
	<path class="st0" d="M250.4,212.6l2.7-31.2c-26.3,17.3-54.4,28.5-79.5,31.7c5,8.8,38.3,9.1,38.3,9.1S246.4,221.9,250.4,212.6z"/>
	<path class="st0" d="M222.2,46.6c-3.2,0-6.5,0.2-10.2,0.3c-19.6,0.7-53.5,2-53.5,2l1.5,11.1c-1.4,4.1-2.2,8.3-2.2,12.8
		c0,4.3,0.7,8.4,2,12.4c6.7-5.8,13.9-11.2,21.5-16.3C194.7,59.8,208.6,52.3,222.2,46.6z"/>
	<path class="st0" d="M253.9,172.9l6.9-80.9c3.3-5.8,5.1-12.3,5.1-19.2c0-4.5-0.8-8.7-2.2-12.8l1.5-11.1c0,0-5.1-1.9-23.5-2.4
		c-18.6,5.7-38.1,15.1-56.6,27.7c-8,5.4-15.4,11.2-22.4,17.2c0.1,0.2,0.2,0.3,0.3,0.5l9.8,114.6c25.2-3.3,53.4-14.9,79.8-32.8
		C253,173.5,253.4,173.2,253.9,172.9z"/>
</g>
<g>
	<g>
		<path class="st0" d="M368.9,121.5c-3,0-4.3-1.3-4.3-4.3V39.5c0-3,1.3-4.3,4.3-4.3h36.7c21.8,0,28.3,9.5,28.3,23.4v15.4
			c0,13.9-6.5,23.4-28.3,23.4h-13.8v19.9c0,3-1.3,4.3-4.3,4.3H368.9z M391.6,75.7h10.8c4.7,0,5.6-2.8,5.6-5.9v-6.4
			c0-3.1-1-5.9-5.6-5.9h-10.8V75.7z"/>
		<path class="st0" d="M465.4,121.5h-17.6c-3,0-4.3-1.3-4.3-4.3V85.5c0-4.8,1.4-10.8,4.7-19.2l10.4-27.2c1-2.8,2.9-4,6.1-4h32.3
			c3.1,0,5,1.2,6,4l10.4,27.2c3.2,8.4,4.7,14.4,4.7,19.2v31.7c0,3-1.3,4.3-4.3,4.3h-18.1c-3.2,0-4.7-1.3-4.7-4.3v-16.8h-21.2v16.8
			C469.7,120.2,468.4,121.5,465.4,121.5z M470.9,78.6h18.8l-5.6-18.2c-0.6-1.4-1.3-2-2.3-2h-3c-1,0-1.7,0.6-2.3,2L470.9,78.6z"/>
		<path class="st0" d="M537.1,121.5c-3,0-4.3-1.3-4.3-4.3V39.5c0-3,1.3-4.3,4.3-4.3h40c18,0,23.6,8.2,23.6,20v5.5
			c0,6.7-1.7,11.5-6.7,13.7c8.8,1,14.5,7.3,14.5,17.4v25.4c0,3-1.3,4.3-4.3,4.3h-18.6c-3,0-4.3-1.3-4.3-4.3V98.8
			c0-3.6-1.2-5.2-4.6-5.2h-16.8v23.5c0,3-1.3,4.3-4.3,4.3H537.1z M559.9,72.1h9c4.2,0,5.3-2.4,5.3-5.6v-4.1c0-3.2-1.1-5.6-5.3-5.6
			h-9V72.1z"/>
		<path class="st0" d="M642.1,121.5h-17.6c-3,0-4.3-1.3-4.3-4.3V85.5c0-4.8,1.4-10.8,4.7-19.2l10.4-27.2c1-2.8,2.9-4,6.1-4h32.3
			c3.1,0,5,1.2,6,4l10.4,27.2c3.2,8.4,4.7,14.4,4.7,19.2v31.7c0,3-1.3,4.3-4.3,4.3h-18.1c-3.2,0-4.7-1.3-4.7-4.3v-16.8h-21.2v16.8
			C646.4,120.2,645.1,121.5,642.1,121.5z M647.6,78.6h18.8l-5.6-18.2c-0.6-1.4-1.3-2-2.3-2h-3c-1,0-1.7,0.6-2.3,2L647.6,78.6z"/>
		<path class="st0" d="M713.9,121.5c-3,0-4.3-1.3-4.3-4.3V39.5c0-3,1.3-4.3,4.3-4.3h18.6c3,0,4.3,1.3,4.3,4.3v59.4h16.4V79.4
			c0-3,1.3-4.3,4.3-4.3h17.4c3,0,4.3,1.3,4.3,4.3v37.8c0,3-1.3,4.3-4.3,4.3H713.9z"/>
		<path class="st0" d="M797.3,121.5c-3,0-4.3-1.3-4.3-4.3V39.5c0-3,1.3-4.3,4.3-4.3h18.6c3,0,4.3,1.3,4.3,4.3v59.4h16.4V79.4
			c0-3,1.3-4.3,4.3-4.3h17.4c3,0,4.3,1.3,4.3,4.3v37.8c0,3-1.3,4.3-4.3,4.3H797.3z"/>
		<path class="st0" d="M880.7,121.5c-3,0-4.3-1.3-4.3-4.3V39.5c0-3,1.3-4.3,4.3-4.3h55.7c3,0,4.3,1.3,4.3,4.3v14
			c0,3-1.3,4.3-4.3,4.3h-33.1v9.2h23.4c3,0,4.3,1.3,4.3,4.3v12.8c0,3-1.3,4.3-4.3,4.3h-23.4v10.3h33.1c3,0,4.3,1.3,4.3,4.3v14
			c0,3-1.3,4.3-4.3,4.3H880.7z"/>
		<path class="st0" d="M959.1,121.5c-3,0-4.3-1.3-4.3-4.3V39.5c0-3,1.3-4.3,4.3-4.3h18.6c3,0,4.3,1.3,4.3,4.3v59.4h16.4V79.4
			c0-3,1.3-4.3,4.3-4.3h17.4c3,0,4.3,1.3,4.3,4.3v37.8c0,3-1.3,4.3-4.3,4.3H959.1z"/>
	</g>
	<g>
		<path class="st0" d="M368.9,221.5c-3,0-4.3-1.3-4.3-4.3v-77.8c0-3,1.3-4.3,4.3-4.3h38.3c15.7,0,23,5.8,23,18.4v5.8
			c0,6.7-2.3,10.9-7.1,13c10.3,1,15.1,6.8,15.1,18.6v11c0,13.4-7.3,19.7-23.3,19.7H368.9z M391.6,168.5h10.2c3.1,0,4.6-1.6,4.6-4.8
			v-3.4c0-3.2-1.4-4.8-4.6-4.8h-10.2V168.5z M391.6,201.1h15.6c3.1,0,4.6-1.6,4.6-4.8v-4.7c0-3.2-1.4-4.7-4.6-4.7h-15.6V201.1z"/>
		<path class="st0" d="M455.9,221.5c-3,0-4.3-1.3-4.3-4.3v-77.8c0-3,1.3-4.3,4.3-4.3h40c18,0,23.6,8.2,23.6,20v5.5
			c0,6.7-1.7,11.5-6.7,13.7c8.8,1,14.5,7.3,14.5,17.4v25.4c0,3-1.3,4.3-4.3,4.3h-18.6c-3,0-4.3-1.3-4.3-4.3v-18.4
			c0-3.6-1.2-5.2-4.6-5.2h-16.8v23.5c0,3-1.3,4.3-4.3,4.3H455.9z M478.7,172.1h9c4.2,0,5.3-2.4,5.3-5.6v-4.1c0-3.2-1.1-5.6-5.3-5.6
			h-9V172.1z"/>
		<path class="st0" d="M545,221.5c-3,0-4.3-1.3-4.3-4.3v-77.8c0-3,1.3-4.3,4.3-4.3h55.7c3,0,4.3,1.3,4.3,4.3v14c0,3-1.3,4.3-4.3,4.3
			h-33.1v9.2H591c3,0,4.3,1.3,4.3,4.3v12.8c0,3-1.3,4.3-4.3,4.3h-23.4v10.3h33.1c3,0,4.3,1.3,4.3,4.3v14c0,3-1.3,4.3-4.3,4.3H545z"
			/>
		<path class="st0" d="M699.1,135.1c3,0,4.3,1.3,4.3,4.3V186c0,5.2,0,9-2.2,14.9l-6,16.3c-0.8,2.4-2.3,4.3-4.8,4.3h-16
			c-2.6,0-4.8-1.1-5.5-3.6l-5.5-19.6c-0.5-1.6-1.2-2-2.2-2h-1.1c-1,0-1.7,0.5-2.2,2l-5.6,19.6c-0.7,2.4-2.5,3.6-5,3.6h-15.8
			c-2.6,0-4.4-1.8-5.3-4.3l-6-16.6c-2.2-5.9-2.2-9.7-2.2-14.9v-46.3c0-3,1.3-4.3,4.3-4.3h18.5c3,0,4.3,1.3,4.3,4.3v44.2l7-15.1
			c1.3-2.8,3.2-3.7,6.4-3.7h5c3.1,0,5,1,6.4,3.7l7,15.1v-44.2c0-3,1.2-4.3,4.3-4.3H699.1z"/>
		<path class="st0" d="M723.2,221.5c-3,0-4.3-1.3-4.3-4.3v-77.8c0-3,1.3-4.3,4.3-4.3h12.5c3.1,0,5,0.8,7.1,3.2l23.3,26.6v-25.6
			c0-3,1.3-4.3,4.3-4.3h18c3,0,4.3,1.3,4.3,4.3v77.8c0,3-1.3,4.3-4.3,4.3h-18c-3,0-4.3-1.3-4.3-4.3v-14.8l-20.5-24.8v39.6
			c0,3-1.3,4.3-4.3,4.3H723.2z"/>
		<path class="st0" d="M807.3,217.2v-14.3c0-3,1.3-4.3,4.3-4.3h11.9v-40.3h-11.9c-3,0-4.3-1.3-4.3-4.3v-14.5c0-3,1.3-4.3,4.3-4.3
			h51.1c3,0,4.3,1.3,4.3,4.3V154c0,3-1.3,4.3-4.3,4.3h-11.6v40.3h11.6c3,0,4.3,1.3,4.3,4.3v14.3c0,3-1.3,4.3-4.3,4.3h-51.1
			C808.7,221.5,807.3,220.2,807.3,217.2z"/>
		<path class="st0" d="M901.8,221.5c-3.1,0-4.9-1-6.1-4l-11.8-29.4c-2.9-7.2-3.8-9.5-3.8-17v-31.7c0-3,1.3-4.3,4.3-4.3h19.1
			c3,0,4.7,1.3,4.7,4.3v33.1c0,1.7,0.4,3.1,1,4.9l5.6,16.8c0.5,1.6,1,2,2.3,2h1.3c1.3,0,1.8-0.5,2.3-2l5.6-16.9c0.6-1.8,1-3.2,1-4.9
			v-33c0-3,1.3-4.3,4.3-4.3h18.8c3.1,0,4.3,1.3,4.3,4.3v31.7c0,7.6-1,9.8-3.8,17l-11.8,29.4c-1.2,3-3,4-6.1,4H901.8z"/>
		<path class="st0" d="M973.8,221.5c-3,0-4.3-1.3-4.3-4.3v-77.8c0-3,1.3-4.3,4.3-4.3h55.7c3,0,4.3,1.3,4.3,4.3v14
			c0,3-1.3,4.3-4.3,4.3h-33.1v9.2h23.4c3,0,4.3,1.3,4.3,4.3v12.8c0,3-1.3,4.3-4.3,4.3h-23.4v10.3h33.1c3,0,4.3,1.3,4.3,4.3v14
			c0,3-1.3,4.3-4.3,4.3H973.8z"/>
		<path class="st0" d="M1052.3,221.5c-3,0-4.3-1.3-4.3-4.3v-77.8c0-3,1.3-4.3,4.3-4.3h40c18,0,23.6,8.2,23.6,20v5.5
			c0,6.7-1.7,11.5-6.7,13.7c8.8,1,14.5,7.3,14.5,17.4v25.4c0,3-1.3,4.3-4.3,4.3h-18.6c-3,0-4.3-1.3-4.3-4.3v-18.4
			c0-3.6-1.2-5.2-4.6-5.2h-16.8v23.5c0,3-1.3,4.3-4.3,4.3H1052.3z M1075.1,172.1h9c4.2,0,5.3-2.4,5.3-5.6v-4.1
			c0-3.2-1.1-5.6-5.3-5.6h-9V172.1z"/>
		<path class="st0" d="M1139.3,221.5c-3,0-4.3-1.3-4.3-4.3v-14c0-3,1.3-4.3,4.3-4.3h32.3c2,0,3.1-1.6,3.1-3.5c0-2.8-1.1-3.8-3.1-4.1
			l-18-2.5c-11.3-1.7-18.6-6.5-18.6-19.9v-12.6c0-13.7,9.2-21.1,24.8-21.1h33.6c3,0,4.3,1.3,4.3,4.3v14.3c0,3-1.3,4.3-4.3,4.3h-28
			c-2,0-3.2,1.4-3.2,3.6c0,2.2,1.2,3.6,3.2,3.8l17.9,2.4c11.3,1.7,18.7,6.5,18.7,19.9v12.6c0,13.7-9.4,21.1-24.8,21.1H1139.3z"/>
		<path class="st0" d="M1219.4,221.5c-3,0-4.3-1.3-4.3-4.3v-77.8c0-3,1.3-4.3,4.3-4.3h55.7c3,0,4.3,1.3,4.3,4.3v14
			c0,3-1.3,4.3-4.3,4.3H1242v9.2h23.4c3,0,4.3,1.3,4.3,4.3v12.8c0,3-1.3,4.3-4.3,4.3H1242v10.3h33.1c3,0,4.3,1.3,4.3,4.3v14
			c0,3-1.3,4.3-4.3,4.3H1219.4z"/>
		<path class="st0" d="M1295.7,221.5c-3,0-4.3-1.3-4.3-4.3v-14c0-3,1.3-4.3,4.3-4.3h32.3c2,0,3.1-1.6,3.1-3.5c0-2.8-1.1-3.8-3.1-4.1
			l-18-2.5c-11.3-1.7-18.6-6.5-18.6-19.9v-12.6c0-13.7,9.2-21.1,24.8-21.1h33.6c3,0,4.3,1.3,4.3,4.3v14.3c0,3-1.3,4.3-4.3,4.3h-28
			c-2,0-3.2,1.4-3.2,3.6c0,2.2,1.2,3.6,3.2,3.8l17.9,2.4c11.3,1.7,18.7,6.5,18.7,19.9v12.6c0,13.7-9.4,21.1-24.8,21.1H1295.7z"/>
	</g>
</g>
</svg>
