<?xml version="1.0" encoding="utf-8"?>
<!-- Generator: Adobe Illustrator 23.0.1, SVG Export Plug-In . SVG Version: 6.00 Build 0)  -->
<svg version="1.1" xmlns="http://www.w3.org/2000/svg" xmlns:xlink="http://www.w3.org/1999/xlink" x="0px" y="0px"
	 viewBox="0 0 573.2 65" style="enable-background:new 0 0 573.2 65;" xml:space="preserve">
<style type="text/css">
	.st0{fill:#1B1640;}
</style>
<g id="pb_icon">
	<g>
		<path class="st0" d="M16.1,16.4c4.3,0,5.9,2,5.6,5.5l-1,11.3c-0.3,3.5-2.3,5.5-6.6,5.5H7.6l-1.1,13H0l3.1-35.3H16.1z M15.2,22.9
			c0.1-1.2-0.2-1.5-1.4-1.5H9.1L8,33.8h4.6c1.2,0,1.6-0.3,1.7-1.5L15.2,22.9z"/>
		<path class="st0" d="M39,44.4h-7.7l-1.9,7.3h-6.4l10.2-35.3h8.7l4.4,35.3h-6.5L39,44.4z M38.5,39.6l-1.6-16.9l-4.4,16.9H38.5z"/>
		<path class="st0" d="M62.1,38H60l-1.2,13.8h-6.4l3.1-35.3h13c4.3,0,5.9,2,5.6,5.5l-0.9,10.5c-0.3,2.9-1.7,4.8-4.6,5.4l4.7,13.9
			h-6.9L62.1,38z M60.4,33.2h4.6c1.2,0,1.6-0.3,1.7-1.5l0.8-8.8c0.1-1.2-0.2-1.5-1.4-1.5h-4.6L60.4,33.2z"/>
		<path class="st0" d="M94.5,44.4h-7.7l-1.9,7.3h-6.4l10.2-35.3h8.7l4.4,35.3h-6.5L94.5,44.4z M94,39.6l-1.6-16.9L88,39.6H94z"/>
		<path class="st0" d="M124.1,46.8l-0.4,4.9h-15.8l3.1-35.3h6.4l-2.7,30.4H124.1z"/>
		<path class="st0" d="M146.1,46.8l-0.4,4.9h-15.8l3.1-35.3h6.4l-2.7,30.4H146.1z"/>
		<path class="st0" d="M169.4,46.8l-0.4,4.9h-17.2l3.1-35.3h16.8l-0.4,4.9h-10.3l-0.9,9.8h8.7l-0.4,5h-8.7l-0.9,10.7H169.4z"/>
		<polygon class="st0" points="191.7,46.8 191.7,46.8 182.2,46.8 184.9,16.4 178.5,16.4 175.4,51.8 184.5,51.8 		"/>
		<path class="st0" d="M302.9,38h-2.1l-1.2,13.8h-6.4l3.1-35.3h13c4.3,0,5.9,2,5.6,5.5l-0.9,10.5c-0.3,2.9-1.7,4.8-4.6,5.4l4.7,13.9
			h-6.9L302.9,38z M301.2,33.2h4.6c1.2,0,1.6-0.3,1.7-1.5l0.8-8.8c0.1-1.2-0.2-1.5-1.4-1.5h-4.6L301.2,33.2z"/>
		<path class="st0" d="M337.9,46.8l-0.4,4.9h-17.2l3.1-35.3h16.8l-0.4,4.9h-10.3l-0.9,9.8h8.7l-0.4,5h-8.7l-0.9,10.7H337.9z"/>
		<path class="st0" d="M382.5,16.4l-9.3,35.3H365l-1.8-24.9l-6.1,24.9h-8.2l-3.1-35.3h6.7l1.1,28.7l7.2-28.7h6.8l2.1,28.7l6.5-28.7
			H382.5z"/>
		<path class="st0" d="M408.3,16.4l-3.1,35.3h-6l-5.5-23.4l-2,23.4h-5.9l3.1-35.3h6.2l5.4,23.1l2-23.1H408.3z"/>
		<path class="st0" d="M422.2,16.4l-3.1,35.3h-6.4l3.1-35.3H422.2z"/>
		<path class="st0" d="M450.9,16.4l-10.1,35.3h-8.5l-3.9-35.3h6.7l2,28.6l7.1-28.6H450.9z"/>
		<path class="st0" d="M471.6,46.8l-0.4,4.9H454l3.1-35.3h16.8l-0.4,4.9h-10.3l-0.9,9.8h8.7l-0.4,5h-8.7l-0.9,10.7H471.6z"/>
		<path class="st0" d="M487.4,38h-2.1l-1.2,13.8h-6.4l3.1-35.3h13c4.3,0,5.9,2,5.6,5.5l-0.9,10.5c-0.3,2.9-1.7,4.8-4.6,5.4l4.7,13.9
			h-6.9L487.4,38z M485.7,33.2h4.6c1.2,0,1.6-0.3,1.7-1.5l0.8-8.8c0.1-1.2-0.2-1.5-1.4-1.5h-4.6L485.7,33.2z"/>
		<path class="st0" d="M516.9,37.8c0.1-1.2-0.2-1.5-1.4-1.5h-4.5c-4.2,0-5.6-2.1-5.3-5.6l0.8-8.7c0.3-3.5,2.2-5.5,6.5-5.5h6.2
			c4.3,0,5.9,2,5.6,5.5l-0.4,4.9h-6.5l0.4-4c0.1-1.2-0.2-1.5-1.4-1.5h-2.1c-1.2,0-1.7,0.3-1.8,1.5l-0.6,7.1
			c-0.1,1.2,0.3,1.5,1.5,1.5h4.4c4.2,0,5.7,2,5.4,5.5l-0.8,9.2c-0.3,3.5-2.3,5.5-6.6,5.5h-6c-4.3,0-5.9-2-5.6-5.5l0.4-4.9h6.4
			l-0.3,4c-0.1,1.2,0.3,1.5,1.5,1.5h2.1c1.2,0,1.6-0.3,1.7-1.5L516.9,37.8z"/>
		<path class="st0" d="M546.7,46.8l-0.4,4.9H529l3.1-35.3h16.8l-0.4,4.9h-10.3l-0.9,9.8h8.7l-0.4,5h-8.7l-0.9,10.7H546.7z"/>
		<path class="st0" d="M565.4,37.8c0.1-1.2-0.2-1.5-1.4-1.5h-4.5c-4.2,0-5.6-2.1-5.3-5.6l0.8-8.7c0.3-3.5,2.2-5.5,6.5-5.5h6.2
			c4.3,0,5.9,2,5.6,5.5l-0.4,4.9h-6.5l0.4-4c0.1-1.2-0.2-1.5-1.4-1.5h-2.1c-1.2,0-1.7,0.3-1.8,1.5l-0.6,7.1
			c-0.1,1.2,0.3,1.5,1.5,1.5h4.4c4.2,0,5.7,2,5.4,5.5l-0.8,9.2c-0.3,3.5-2.3,5.5-6.6,5.5h-6c-4.3,0-5.9-2-5.6-5.5l0.4-4.9h6.4
			l-0.3,4c-0.1,1.2,0.3,1.5,1.5,1.5h2.1c1.2,0,1.6-0.3,1.7-1.5L565.4,37.8z"/>
		<path class="st0" d="M268.9,14.3"/>
		<path class="st0" d="M283,16.4h-6.8l-7.1,4.8l-2.7,30.5h13.4c4.3,0,6.3-2,6.6-5.5l0.7-8.3c0.2-2.2-0.4-3.5-2-4
			c1.7-0.6,2.5-2.1,2.7-4.3l0.7-7.6C288.9,18.4,287.3,16.4,283,16.4z M280.8,37.8l-0.7,7.8c-0.1,1.2-0.5,1.5-1.8,1.5h-5.1l0.9-10.8
			h5.1C280.6,36.3,281,36.5,280.8,37.8z M282.2,22.6l-0.6,7.4c-0.1,1.2-0.5,1.5-1.8,1.5h-5.1l0.9-10.4h5.1
			C281.9,21.1,282.3,21.5,282.2,22.6z"/>
		<g>
			<path class="st0" d="M243.7,61.3L243.7,61.3l1.4-15.6c7-5.1,12.6-11.2,15.9-17.4c1.6-3,2.6-5.8,3-8.4c2.4-1,4-3.4,4-6.2
				c0-3.7-3-6.7-6.7-6.7c-0.9,0-1.7,0.2-2.4,0.5c-2.5-1.7-5.9-2.5-10-2.4l0.1-1V4c-0.2-0.7-2.1-4-18.9-4s-18.8,3.3-19,4v0.1l0.7,7.5
				c-0.5,1.4-0.7,2.9-0.7,4.4c0,2.1,0.5,4.2,1.5,6.2c-4,3.8-7.3,7.9-9.5,12c-1.8,3.3-2.8,6.4-3.1,9.2c-2.5,1-4.2,3.4-4.2,6.2
				c0,3.7,3,6.7,6.7,6.7c1.2,0,2.4-0.3,3.4-0.9c2.4,1.3,5.4,2,9,2c0.4,0,0.8,0,1.3,0l0.3,3.7v0.2c1.5,3.4,11.6,3.7,13.7,3.6l0,0V65
				l0,0C232.1,64.9,242.2,64.7,243.7,61.3z M249.4,7c2.1,0,4,0.3,5.6,0.7c0.8,0.2,1.5,0.5,2.1,0.8c-1.5,1.2-2.4,3.1-2.4,5.1
				c0,3.7,3,6.7,6.7,6.7c0.2,0,0.4,0,0.6,0c-0.4,2.2-1.3,4.5-2.7,7c-3,5.5-7.9,11-14,15.7l1.9-20.4c1.2-2.1,1.7-4.4,1.7-6.7
				c0-1.5-0.3-3-0.7-4.4l0.5-4.5C248.9,7,249.2,7,249.4,7z M209.1,54.7c-0.6-0.2-1.2-0.4-1.8-0.7c1.1-1.2,1.7-2.7,1.7-4.5
				c0-3.7-3-6.7-6.7-6.7c-0.2,0-0.3,0-0.5,0c0.4-2.4,1.3-5.1,2.8-7.8c2-3.6,4.8-7.3,8.3-10.7l2.8,31.1
				C213.3,55.5,211,55.3,209.1,54.7z M217.7,60.8l-0.3-3.6l-0.2-1.9l-2.9-32.2l-0.1-0.9l-0.1-0.1c-0.2-0.3-0.4-0.7-0.5-1
				c-0.8-1.6-1.1-3.4-1.1-5.2c0-1.4,0.2-2.8,0.7-4.1v-0.1l-0.7-7.4c0.4-0.4,3.2-2.9,17.5-2.9c14.4,0,17.1,2.5,17.5,2.9l-0.1,0.8
				L247.2,7l-0.4,4.7v0.1c0.5,1.3,0.7,2.7,0.7,4.1c0,2.1-0.5,4.2-1.6,6.2l-0.1,0.1l-2,21.9l-0.2,2.5l-1.3,14.1
				c-1,1.9-8.1,2.7-12.4,2.8C225.7,63.5,218.7,62.7,217.7,60.8z"/>
			<path class="st0" d="M241.2,56.9l0.8-9.1c-7.6,5-15.8,8.3-23.1,9.2c1.5,2.5,11.1,2.6,11.1,2.6S240.1,59.6,241.2,56.9z"/>
			<path class="st0" d="M233,8.7c-0.9,0-1.9,0-2.9,0.1c-5.7,0.3-15.5,0.6-15.5,0.6l0.4,3.2c-0.4,1.2-0.6,2.4-0.6,3.7
				c0,1.2,0.2,2.4,0.6,3.6c1.9-1.7,4-3.3,6.2-4.7C225,12.6,229.1,10.4,233,8.7z"/>
			<path class="st0" d="M242.2,45.4l2-23.5c0.9-1.7,1.5-3.6,1.5-5.6c0-1.3-0.2-2.5-0.6-3.7l0.4-3.2c0,0-1.5-0.5-6.8-0.7
				c-5.4,1.6-11.1,4.4-16.4,8c-2.3,1.6-4.5,3.2-6.5,5c0,0,0,0.1,0.1,0.1l2.9,33.2c7.3-1,15.5-4.3,23.2-9.5
				C242,45.6,242.1,45.5,242.2,45.4z"/>
		</g>
	</g>
</g>
<g id="Layer_2">
</g>
<g id="Layer_3">
</g>
<g id="Layer_4">
</g>
</svg>
