<?xml version="1.0" encoding="utf-8"?>
<!-- Generator: Adobe Illustrator 23.0.1, SVG Export Plug-In . SVG Version: 6.00 Build 0)  -->
<svg version="1.1" id="Layer_1" xmlns="http://www.w3.org/2000/svg" xmlns:xlink="http://www.w3.org/1999/xlink" x="0px" y="0px"
	 viewBox="0 0 993.8 186.5" style="enable-background:new 0 0 993.8 186.5;" xml:space="preserve">
<style type="text/css">
	.st0{fill:#231F20;}
</style>
<g id="Layer_3">
</g>
<g id="Layer_4">
</g>
<g id="Layer_3_1_">
</g>
<g>
	<g>
		<path class="st0" d="M4.3,86.3C1.3,86.3,0,85,0,82V4.3C0,1.3,1.3,0,4.3,0H41c21.8,0,28.3,9.5,28.3,23.4v15.4
			c0,13.9-6.5,23.4-28.3,23.4H27.2v19.9c0,3-1.3,4.3-4.3,4.3H4.3V86.3z M27,40.5h10.8c4.7,0,5.6-2.8,5.6-5.9v-6.4
			c0-3.1-1-5.9-5.6-5.9H27V40.5z"/>
		<path class="st0" d="M100.8,86.3H83.2c-3,0-4.3-1.3-4.3-4.3V50.3c0-4.8,1.4-10.8,4.7-19.2L94,3.9c1-2.8,2.9-4,6.1-4h32.3
			c3.1,0,5,1.2,6,4l10.4,27.2c3.2,8.4,4.7,14.4,4.7,19.2V82c0,3-1.3,4.3-4.3,4.3h-18.1c-3.2,0-4.7-1.3-4.7-4.3V65.2h-21.2V82
			C105.1,85,103.8,86.3,100.8,86.3z M106.3,43.4h18.8l-5.6-18.2c-0.6-1.4-1.3-2-2.3-2h-3c-1,0-1.7,0.6-2.3,2L106.3,43.4z"/>
		<path class="st0" d="M172.5,86.3c-3,0-4.3-1.3-4.3-4.3V4.3c0-3,1.3-4.3,4.3-4.3h40c18,0,23.6,8.2,23.6,20v5.5
			c0,6.7-1.7,11.5-6.7,13.7c8.8,1,14.5,7.3,14.5,17.4V82c0,3-1.3,4.3-4.3,4.3H221c-3,0-4.3-1.3-4.3-4.3V63.6c0-3.6-1.2-5.2-4.6-5.2
			h-16.8v23.5c0,3-1.3,4.3-4.3,4.3L172.5,86.3L172.5,86.3z M195.3,36.9h9c4.2,0,5.3-2.4,5.3-5.6v-4.1c0-3.2-1.1-5.6-5.3-5.6h-9V36.9
			z"/>
		<path class="st0" d="M277.5,86.3h-17.6c-3,0-4.3-1.3-4.3-4.3V50.3c0-4.8,1.4-10.8,4.7-19.2l10.4-27.2c1-2.8,2.9-4,6.1-4h32.3
			c3.1,0,5,1.2,6,4l10.4,27.2c3.2,8.4,4.7,14.4,4.7,19.2V82c0,3-1.3,4.3-4.3,4.3h-18.1c-3.2,0-4.7-1.3-4.7-4.3V65.2h-21.2V82
			C281.8,85,280.5,86.3,277.5,86.3z M283,43.4h18.8l-5.6-18.2c-0.6-1.4-1.3-2-2.3-2h-3c-1,0-1.7,0.6-2.3,2L283,43.4z"/>
		<path class="st0" d="M349.3,86.3c-3,0-4.3-1.3-4.3-4.3V4.3c0-3,1.3-4.3,4.3-4.3h18.6c3,0,4.3,1.3,4.3,4.3v59.4h16.4V44.2
			c0-3,1.3-4.3,4.3-4.3h17.4c3,0,4.3,1.3,4.3,4.3V82c0,3-1.3,4.3-4.3,4.3H349.3z"/>
		<path class="st0" d="M432.7,86.3c-3,0-4.3-1.3-4.3-4.3V4.3c0-3,1.3-4.3,4.3-4.3h18.6c3,0,4.3,1.3,4.3,4.3v59.4H472V44.2
			c0-3,1.3-4.3,4.3-4.3h17.4c3,0,4.3,1.3,4.3,4.3V82c0,3-1.3,4.3-4.3,4.3H432.7z"/>
		<path class="st0" d="M516.1,86.3c-3,0-4.3-1.3-4.3-4.3V4.3c0-3,1.3-4.3,4.3-4.3h55.7c3,0,4.3,1.3,4.3,4.3v14c0,3-1.3,4.3-4.3,4.3
			h-33.1v9.2h23.4c3,0,4.3,1.3,4.3,4.3v12.8c0,3-1.3,4.3-4.3,4.3h-23.4v10.3h33.1c3,0,4.3,1.3,4.3,4.3v14c0,3-1.3,4.3-4.3,4.3h-55.7
			V86.3z"/>
		<path class="st0" d="M594.5,86.3c-3,0-4.3-1.3-4.3-4.3V4.3c0-3,1.3-4.3,4.3-4.3h18.6c3,0,4.3,1.3,4.3,4.3v59.4h16.4V44.2
			c0-3,1.3-4.3,4.3-4.3h17.4c3,0,4.3,1.3,4.3,4.3V82c0,3-1.3,4.3-4.3,4.3H594.5z"/>
	</g>
	<g>
		<path class="st0" d="M4.3,186.3c-3,0-4.3-1.3-4.3-4.3v-77.8c0-3,1.3-4.3,4.3-4.3h38.3c15.7,0,23,5.8,23,18.4v5.8
			c0,6.7-2.3,10.9-7.1,13c10.3,1,15.1,6.8,15.1,18.6v11c0,13.4-7.3,19.7-23.3,19.7L4.3,186.3L4.3,186.3z M27,133.3h10.2
			c3.1,0,4.6-1.6,4.6-4.8v-3.4c0-3.2-1.4-4.8-4.6-4.8H27V133.3z M27,165.9h15.6c3.1,0,4.6-1.6,4.6-4.8v-4.7c0-3.2-1.4-4.7-4.6-4.7
			H27V165.9z"/>
		<path class="st0" d="M91.3,186.3c-3,0-4.3-1.3-4.3-4.3v-77.8c0-3,1.3-4.3,4.3-4.3h40c18,0,23.6,8.2,23.6,20v5.5
			c0,6.7-1.7,11.5-6.7,13.7c8.8,1,14.5,7.3,14.5,17.4v25.4c0,3-1.3,4.3-4.3,4.3h-18.6c-3,0-4.3-1.3-4.3-4.3v-18.4
			c0-3.6-1.2-5.2-4.6-5.2h-16.8v23.5c0,3-1.3,4.3-4.3,4.3H91.3V186.3z M114.1,136.9h9c4.2,0,5.3-2.4,5.3-5.6v-4.1
			c0-3.2-1.1-5.6-5.3-5.6h-9V136.9z"/>
		<path class="st0" d="M180.4,186.3c-3,0-4.3-1.3-4.3-4.3v-77.8c0-3,1.3-4.3,4.3-4.3h55.7c3,0,4.3,1.3,4.3,4.3v14
			c0,3-1.3,4.3-4.3,4.3H203v9.2h23.4c3,0,4.3,1.3,4.3,4.3v12.8c0,3-1.3,4.3-4.3,4.3H203v10.3h33.1c3,0,4.3,1.3,4.3,4.3v14
			c0,3-1.3,4.3-4.3,4.3h-55.7V186.3z"/>
		<path class="st0" d="M334.5,99.9c3,0,4.3,1.3,4.3,4.3v46.6c0,5.2,0,9-2.2,14.9l-6,16.3c-0.8,2.4-2.3,4.3-4.8,4.3h-16
			c-2.6,0-4.8-1.1-5.5-3.6l-5.5-19.6c-0.5-1.6-1.2-2-2.2-2h-1.1c-1,0-1.7,0.5-2.2,2l-5.6,19.6c-0.7,2.4-2.5,3.6-5,3.6h-15.8
			c-2.6,0-4.4-1.8-5.3-4.3l-6-16.6c-2.2-5.9-2.2-9.7-2.2-14.9v-46.3c0-3,1.3-4.3,4.3-4.3h18.5c3,0,4.3,1.3,4.3,4.3v44.2l7-15.1
			c1.3-2.8,3.2-3.7,6.4-3.7h5c3.1,0,5,1,6.4,3.7l7,15.1v-44.2c0-3,1.2-4.3,4.3-4.3L334.5,99.9L334.5,99.9z"/>
		<path class="st0" d="M358.6,186.3c-3,0-4.3-1.3-4.3-4.3v-77.8c0-3,1.3-4.3,4.3-4.3h12.5c3.1,0,5,0.8,7.1,3.2l23.3,26.6v-25.6
			c0-3,1.3-4.3,4.3-4.3h18c3,0,4.3,1.3,4.3,4.3v77.8c0,3-1.3,4.3-4.3,4.3h-18c-3,0-4.3-1.3-4.3-4.3v-14.8L381,142.3v39.6
			c0,3-1.3,4.3-4.3,4.3h-18.1V186.3z"/>
		<path class="st0" d="M442.7,182v-14.3c0-3,1.3-4.3,4.3-4.3h11.9v-40.3H447c-3,0-4.3-1.3-4.3-4.3v-14.5c0-3,1.3-4.3,4.3-4.3h51.1
			c3,0,4.3,1.3,4.3,4.3v14.5c0,3-1.3,4.3-4.3,4.3h-11.6v40.3h11.6c3,0,4.3,1.3,4.3,4.3V182c0,3-1.3,4.3-4.3,4.3H447
			C444.1,186.3,442.7,185,442.7,182z"/>
		<path class="st0" d="M537.2,186.3c-3.1,0-4.9-1-6.1-4l-11.8-29.4c-2.9-7.2-3.8-9.5-3.8-17v-31.7c0-3,1.3-4.3,4.3-4.3h19.1
			c3,0,4.7,1.3,4.7,4.3v33.1c0,1.7,0.4,3.1,1,4.9l5.6,16.8c0.5,1.6,1,2,2.3,2h1.3c1.3,0,1.8-0.5,2.3-2l5.6-16.9c0.6-1.8,1-3.2,1-4.9
			v-33c0-3,1.3-4.3,4.3-4.3h18.8c3.1,0,4.3,1.3,4.3,4.3v31.7c0,7.6-1,9.8-3.8,17l-11.8,29.4c-1.2,3-3,4-6.1,4H537.2z"/>
		<path class="st0" d="M609.2,186.3c-3,0-4.3-1.3-4.3-4.3v-77.8c0-3,1.3-4.3,4.3-4.3h55.7c3,0,4.3,1.3,4.3,4.3v14
			c0,3-1.3,4.3-4.3,4.3h-33.1v9.2h23.4c3,0,4.3,1.3,4.3,4.3v12.8c0,3-1.3,4.3-4.3,4.3h-23.4v10.3h33.1c3,0,4.3,1.3,4.3,4.3v14
			c0,3-1.3,4.3-4.3,4.3h-55.7V186.3z"/>
		<path class="st0" d="M687.7,186.3c-3,0-4.3-1.3-4.3-4.3v-77.8c0-3,1.3-4.3,4.3-4.3h40c18,0,23.6,8.2,23.6,20v5.5
			c0,6.7-1.7,11.5-6.7,13.7c8.8,1,14.5,7.3,14.5,17.4v25.4c0,3-1.3,4.3-4.3,4.3h-18.6c-3,0-4.3-1.3-4.3-4.3v-18.4
			c0-3.6-1.2-5.2-4.6-5.2h-16.8v23.5c0,3-1.3,4.3-4.3,4.3h-18.5V186.3z M710.5,136.9h9c4.2,0,5.3-2.4,5.3-5.6v-4.1
			c0-3.2-1.1-5.6-5.3-5.6h-9V136.9z"/>
		<path class="st0" d="M774.7,186.3c-3,0-4.3-1.3-4.3-4.3v-14c0-3,1.3-4.3,4.3-4.3H807c2,0,3.1-1.6,3.1-3.5c0-2.8-1.1-3.8-3.1-4.1
			l-18-2.5c-11.3-1.7-18.6-6.5-18.6-19.9v-12.6c0-13.7,9.2-21.1,24.8-21.1h33.6c3,0,4.3,1.3,4.3,4.3v14.3c0,3-1.3,4.3-4.3,4.3h-28
			c-2,0-3.2,1.4-3.2,3.6c0,2.2,1.2,3.6,3.2,3.8l17.9,2.4c11.3,1.7,18.7,6.5,18.7,19.9v12.6c0,13.7-9.4,21.1-24.8,21.1H774.7z"/>
		<path class="st0" d="M854.8,186.3c-3,0-4.3-1.3-4.3-4.3v-77.8c0-3,1.3-4.3,4.3-4.3h55.7c3,0,4.3,1.3,4.3,4.3v14
			c0,3-1.3,4.3-4.3,4.3h-33.1v9.2h23.4c3,0,4.3,1.3,4.3,4.3v12.8c0,3-1.3,4.3-4.3,4.3h-23.4v10.3h33.1c3,0,4.3,1.3,4.3,4.3v14
			c0,3-1.3,4.3-4.3,4.3h-55.7V186.3z"/>
		<path class="st0" d="M931.1,186.3c-3,0-4.3-1.3-4.3-4.3v-14c0-3,1.3-4.3,4.3-4.3h32.3c2,0,3.1-1.6,3.1-3.5c0-2.8-1.1-3.8-3.1-4.1
			l-18-2.5c-11.3-1.7-18.6-6.5-18.6-19.9v-12.6c0-13.7,9.2-21.1,24.8-21.1h33.6c3,0,4.3,1.3,4.3,4.3v14.3c0,3-1.3,4.3-4.3,4.3h-28
			c-2,0-3.2,1.4-3.2,3.6c0,2.2,1.2,3.6,3.2,3.8l17.9,2.4c11.3,1.7,18.7,6.5,18.7,19.9v12.6c0,13.7-9.4,21.1-24.8,21.1H931.1z"/>
	</g>
</g>
</svg>
